<?xml version="1.0" ?>
<svg id="icon" viewBox="0 0 512 512"
	xmlns="http://www.w3.org/2000/svg">
    <style>
        path {
            fill: #D72F2E;
            stroke: #f00;
            stroke-width: 4px;
        }
    </style>
	<path d="M434.211,242.084c-10.555-1.454-20.434,7.323-24.2,20.618l-63.22-7.013a99.029,99.029,0,0,0-4.921-42.388l27.471-17.121c8.453,10.719,20.746,15.051,29.91,9.825,10.517-6,12.322-21.975,4.109-36.38a36.517,36.517,0,0,0-14.725-14.6c-6.523-3.3-13.33-3.445-18.674-.4-9.015,5.14-11.853,17.96-6.617,31.152l-26.156,16.3a99.706,99.706,0,0,0-27.679-34.224c29.134-41.98,27.4-39.4,27.757-40.142,11.064,5.642,25.62,6.258,32.444-4.007,7.466-11.234-.566-26.3-12.674-34.349-11.591-7.7-28.878-9.971-36.576,1.608-5.79,8.708-2.35,20.914,7.151,29.929-.616.622,1.132-1.8-27.95,40.105a98.4,98.4,0,0,0-45.44-14.242V99.24c13.61-1.971,23.57-10.56,23.57-21.16,0-12.106-12.988-21.589-29.57-21.589s-29.57,9.483-29.57,21.589c0,10.6,9.96,19.189,23.571,21.16v47.519A98.359,98.359,0,0,0,201.7,158.2L172.249,95.332c10.886-7.821,15.731-19.665,11.11-28.989h0C177.982,55.5,162.13,52.768,147.278,60.13s-22.284,21.628-16.909,32.476c4.767,9.614,17.795,12.908,31.214,8.244l29.826,63.675a99.882,99.882,0,0,0-25.264,25.683l-60.993-36.021c6.067-12.585,4.429-25.858-4.532-31.746-10.191-6.7-25.3-.818-34.28,12.855-8.939,13.6-8.445,29.834,1.8,36.568,8.751,5.753,21.2,2.3,30.3-7.706l61.588,36.372a98.35,98.35,0,0,0-10.708,39.326l-43.12,1.579c-2.485-13.6-11.3-22.8-21.557-22.594-12.1.266-21.3,13.46-20.934,30.038.363,16.408,9.933,29.092,21.864,29.092.123,0,.248,0,.371,0,10.672-.235,19.138-10.6,20.691-24.541l42.712-1.563a98.331,98.331,0,0,0,9.947,37.429l-57.263,31.683c-8.863-11-21.717-15.211-30.9-9.527-10.348,6.405-11.425,22.566-2.8,36.506,8.483,13.707,23.416,20.283,33.918,13.783,8.837-5.469,10.986-18.061,5.9-30.436l57.089-31.587A99.835,99.835,0,0,0,197.8,330.9l-13.242,26.805c-13.09-3.824-25.613-.214-30.048,9.343h0c-5.093,10.982,2.7,25.05,17.739,32.028s30.812,3.848,35.909-7.138c4.387-9.456-.8-21.55-12.686-29.236l13-26.314a98.434,98.434,0,0,0,41.6,8.31l16.637,69.7c-11.887,4.437-21.494,14.762-18.817,26.217,2.761,11.808,17.591,18.061,33.707,14.291,15.841-3.7,26.673-15.807,23.881-27.752-2.371-10.139-13.66-16.195-27.04-15.291l-16.263-68.127A98.763,98.763,0,0,0,314.19,319.5l36.082,35.771c-8.222,9.729-11.632,23.6-3.527,32.322,8.358,8.994,24.453,6.75,36.356-4.313,12.147-11.287,15.207-27.076,6.967-35.944-7.031-7.566-19.688-7.291-30.8-.039l-36.634-36.318a98.889,98.889,0,0,0,22.213-43.428l63.57,7.051c.156,13.684,7.3,24.645,17.764,26.079,11.98,1.645,23.15-9.926,25.4-26.367S446.205,243.727,434.211,242.084ZM375.9,165.052c3.977-2.267,12.05,1.774,17.032,10.515s4.3,17.772.372,20.014-12.052-1.779-17.033-10.515S371.912,167.326,375.9,165.052ZM330.449,97.611h0c1.371-2.063,4.347-2.68,6.84-2.68a24.823,24.823,0,0,1,13.1,4.422c8.362,5.56,11.866,13.891,9.323,17.713s-11.584,3.814-19.941-1.741S327.907,101.436,330.449,97.611ZM141.12,87.277c-2.009-4.056,2.475-11.93,11.486-16.4s17.991-3.263,20,.79S170.133,83.6,161.123,88.066,143.13,91.332,141.12,87.277Zm-66.389,74.56c-3.838-2.523-3.88-11.557,1.637-19.951,5.594-8.515,13.9-11.893,17.663-9.418s3.887,11.546-1.635,19.95S78.512,164.321,74.731,161.837Zm21.207,189.7c-3.912,2.419-12.124-1.368-17.4-9.895s-5-17.567-1.092-19.987c3.858-2.386,12.115,1.354,17.4,9.894S99.788,349.151,95.938,351.534Zm101.333,35.355c-1.9,4.106-10.852,5.538-19.975,1.3s-13.808-11.987-11.9-16.094,10.854-5.536,19.975-1.3S199.2,382.725,197.271,386.889Zm96.524,43c1.045,4.472-5.148,11.051-14.928,13.337s-18.262-.93-19.291-5.338c-1.041-4.451,5.112-11.043,14.927-13.338C284.288,422.258,292.764,425.473,293.8,429.884ZM230.648,78.08c0-4.527,7.514-9.59,17.571-9.59s17.571,5.063,17.571,9.59-7.514,9.589-17.571,9.589S230.648,82.606,230.648,78.08ZM85.678,265.971c-4.542.061-9.753-7.3-9.974-17.356s4.676-17.678,9.2-17.778H85c4.571,0,9.664,7.388,9.882,17.358C95.1,258.231,90.268,265.869,85.678,265.971Zm122.7,57.056c-26.522-13.09-47.236-42.666-47.236-77.38a87.076,87.076,0,0,1,174.152,0C335.3,308.4,269.54,353.16,208.379,323.027Zm172.9,32.473c3.081,3.316,1.022,12.14-6.344,18.986s-16.276,8.3-19.4,4.936h0c-3.113-3.35-1.038-12.126,6.343-18.985C369.243,353.592,378.2,352.183,381.278,355.5ZM439.7,272.682c-1.366,9.963-7.422,16.713-11.886,16.107-4.485-.615-8.48-8.746-7.116-18.71s7.414-16.727,11.886-16.108S441.063,262.718,439.7,272.682Z"/>
	<path d="M225.506,228.064a19.784,19.784,0,1,0-19.784,19.783A19.806,19.806,0,0,0,225.506,228.064Zm-19.784,7.784a7.785,7.785,0,1,1,7.785-7.784A7.793,7.793,0,0,1,205.722,235.848Z"/>
	<path d="M264.692,248.483a29.639,29.639,0,1,0,29.638-29.639A29.672,29.672,0,0,0,264.692,248.483Zm29.638-17.64a17.64,17.64,0,1,1-17.639,17.64A17.66,17.66,0,0,1,294.33,230.843Z"/>
	<path d="M230.244,269.733a23.721,23.721,0,1,0,23.721,23.722A23.749,23.749,0,0,0,230.244,269.733Zm0,35.443a11.722,11.722,0,1,1,11.722-11.721A11.735,11.735,0,0,1,230.244,305.176Z"/>
	<path d="M254.632,217.183a18.867,18.867,0,1,0-18.866-18.866A18.887,18.887,0,0,0,254.632,217.183Zm0-25.734a6.868,6.868,0,1,1-6.867,6.868A6.875,6.875,0,0,1,254.632,191.449Z"/>
</svg>